<svg id="Layer_2" data-name="Layer 2" xmlns="http://www.w3.org/2000/svg" viewBox="0 0 100 100"><defs><style>.cls-1{fill:#20324d;}</style></defs><title>logo-live</title><path class="cls-1" d="M70.89,94.17a48.4,48.4,0,0,1-13.23,4.15A47.43,47.43,0,0,1,50,99a47.43,47.43,0,0,1-7.65-.68,48.4,48.4,0,0,1-13.23-4.15c5-2.82,9.49-7.42,13.23-13.4A66.37,66.37,0,0,0,50,63a66.37,66.37,0,0,0,7.65,17.72C61.4,86.75,65.89,91.35,70.89,94.17Z"/><path class="cls-1" d="M98.91,49.68A48.84,48.84,0,0,1,88.54,79.92C74.93,77.4,63.64,62.16,59,41.48a65.44,65.44,0,0,1-1.36-13.84V1l0,0A49.38,49.38,0,0,1,98.91,49.68Z"/><path class="cls-1" d="M42.35,1v26.6A65.44,65.44,0,0,1,41,41.48C36.36,62.16,25.07,77.4,11.46,79.92A48.84,48.84,0,0,1,1.09,49.68,49.38,49.38,0,0,1,42.31,1Z"/></svg>